<?xml version="1.0" encoding="UTF-8" standalone="no"?> <!-- Created with Vectornator Pro for iOS (http://vectornator.io/) --><!DOCTYPE svg PUBLIC "-//W3C//DTD SVG 1.1//EN" "http://www.w3.org/Graphics/SVG/1.1/DTD/svg11.dtd">
<svg height="100%" style="fill-rule:evenodd;clip-rule:evenodd;stroke-linecap:round;stroke-linejoin:round;" xmlns:xlink="http://www.w3.org/1999/xlink" xmlns="http://www.w3.org/2000/svg" xml:space="preserve" width="100%" xmlns:vectornator="http://vectornator.io" version="1.1" viewBox="0 0 720 720">
<metadata>
<vectornator:setting key="RulersVisible" value="1"/>
<vectornator:setting key="OutlineMode" value="0"/>
<vectornator:setting key="GridSpacing" value="30"/>
<vectornator:setting key="Units" value="Pixels"/>
<vectornator:setting key="DynamicGuides" value="1"/>
<vectornator:setting key="SnapToPoints" value="0"/>
<vectornator:setting key="CMYKEnabledKey" value="0"/>
<vectornator:setting key="SnapToGrid" value="0"/>
<vectornator:setting key="IsolateActiveLayer" value="0"/>
<vectornator:setting key="ShowGrid" value="1"/>
<vectornator:setting key="SnapToEdges" value="0"/>
</metadata>
<defs>
<linearGradient y1="438.094" id="LinearGradient" x1="385.438" y2="356.491" x2="645.931" gradientUnits="userSpaceOnUse" gradientTransform="matrix(1 0 0 1 -0.03125 2.03635)">
<stop stop-color="#a18cd1" offset="0"/>
<stop stop-color="#8e2de2" offset="1"/>
</linearGradient>
<linearGradient y1="570" id="LinearGradient_2" x1="60" y2="420" x2="391" gradientUnits="userSpaceOnUse" gradientTransform="matrix(1 0 0 1 -0.03125 2.03635)">
<stop stop-color="#f6d365" offset="0"/>
<stop stop-color="#fda085" offset="1"/>
</linearGradient>
<linearGradient y1="232.622" id="LinearGradient_3" x1="213.76" y2="167.797" x2="506.188" gradientUnits="userSpaceOnUse" gradientTransform="matrix(1 0 0 1 -0.03125 -11.0991)">
<stop stop-color="#ff9a9e" offset="0"/>
<stop stop-color="#fad0c4" offset="1"/>
</linearGradient>
</defs>
<g id="图层 3" vectornator:layerName="图层 3" visibility="hidden">
<path d="M286.68+244.799C286.68+228.231+300.111+214.799+316.68+214.799C333.248+214.799+346.68+228.231+346.68+244.799C346.68+261.368+333.248+274.799+316.68+274.799C300.111+274.799+286.68+261.368+286.68+244.799Z" opacity="1" fill="#ff0000"/>
</g>
<g id="图层 2" vectornator:layerName="图层 2" visibility="hidden">
<path d="M390+0C307.157-1.01725e-05+240+67.1573+240+150L300+150C300+100.294+340.294+60+390+60C439.706+60+480+100.294+480+150C480+199.706+439.706+240+390+240C369.725+240+351.127+233.172+336.094+221.844L300.062+269.844C325.14+288.694+356.213+300+390+300C472.843+300+540+232.843+540+150C540+67.1573+472.843+0+390+0Z" opacity="1" fill="#ff0000"/>
</g>
<g id="图层 3_2" vectornator:layerName="图层 3" visibility="hidden">
<path d="M240+270C157.157+270+90.0001+337.157+90+420C90+502.843+157.157+570+240+570C322.843+570+390+502.843+390+420C390+403.431+376.569+390+360+390C343.431+390+330+403.431+330+420C330+469.706+289.706+510+240+510C190.294+510+150+469.706+150+420C150+370.294+190.294+330+240+330C260.275+330+278.873+336.828+293.906+348.156L294.031+348C299.257+352.421+305.932+355.188+313.312+355.188C329.881+355.188+343.312+341.756+343.312+325.188C343.312+314.757+337.984+305.594+329.906+300.219L329.938+300.156C304.86+281.306+273.787+270+240+270Z" fill-opacity="0.457926" fill="#ff0000" opacity="1"/>
</g>
<g id="图层 3_3" vectornator:layerName="图层 3" visibility="hidden">
<path d="M510+270C427.157+270+360+337.157+360+420L420+420C420+370.294+460.294+330+510+330C559.706+330+600+370.294+600+420C600+469.706+559.706+510+510+510C489.725+510+471.127+503.172+456.094+491.844L455.969+492C450.743+487.579+444.068+484.812+436.688+484.812C420.119+484.812+406.688+498.244+406.688+514.812C406.688+525.243+412.016+534.406+420.094+539.781L420.062+539.844C445.14+558.694+476.213+570+510+570C592.843+570+660+502.843+660+420C660+337.157+592.843+270+510+270Z" fill-opacity="0.457926" fill="#ff0000" opacity="1"/>
</g>
<g id="图层 3_4" vectornator:layerName="图层 3" visibility="hidden">
<path d="M210+570C292.843+570+360+502.843+360+420L300+420C300+469.706+259.706+510+210+510C160.294+510+120+469.706+120+420C120+370.294+160.294+330+210+330C230.275+330+248.873+336.828+263.906+348.156L264.031+348C269.257+352.421+275.932+355.188+283.312+355.188C299.881+355.188+313.312+341.756+313.312+325.188C313.312+314.757+307.984+305.594+299.906+300.219L299.938+300.156C274.86+281.306+243.787+270+210+270C127.157+270+60.0001+337.157+60+420C60+502.843+127.157+570+210+570Z" fill-opacity="0.457926" fill="#ff0000" opacity="1"/>
</g>
<g id="图层 5" vectornator:layerName="图层 5" visibility="hidden">
<path d="M274.117+483.694L403.953+314.172L446.367+356.396L316.078+526.074" fill-opacity="0.457926" fill="#ff0000" opacity="1"/>
</g>
<g id="图层 4" vectornator:layerName="图层 4" visibility="hidden">
<path d="M510+420L390+300L210+420L330+540" fill-opacity="0.457926" fill="#ff0000" opacity="1"/>
</g>
<g id="图层 3_5" vectornator:layerName="图层 3">
<path d="M510+283.135C476.132+283.135+437.32+298.364+419.875+313.417C386.977+341.802+360.389+378.913+334.812+415.26L385.438+450.854L385.438+451.229C408.525+418.288+430.712+385.889+455.938+361.323C466.516+351.021+489.679+343.135+510+343.135C559.706+343.135+600+383.43+600+433.135C600+482.841+559.706+523.135+510+523.135C489.725+523.135+471.126+516.307+456.094+504.979L455.969+505.135C450.743+500.715+444.068+497.948+436.688+497.948C420.119+497.948+406.688+511.379+406.688+527.948C406.688+538.378+412.016+547.541+420.094+552.917L420.062+552.979C445.14+571.829+476.213+583.135+510+583.135C592.843+583.135+660+515.978+660+433.135C660+350.293+592.843+283.135+510+283.135Z" fill-opacity="0.457926" fill="#ff0000" opacity="1"/>
<path d="M210+283.135C127.157+283.135+60.0001+350.293+60+433.135C60+515.978+127.157+583.135+210+583.135C243.756+583.135+276.465+572.815+299.875+553.042C333.132+524.951+359.84+487.752+385.438+451.229L385.438+450.854L334.812+415.26C311.623+448.216+289.257+480.548+263.906+505.073C250.735+517.815+230.249+523.135+210+523.135C160.294+523.135+120+482.841+120+433.135C120+383.43+160.294+343.135+210+343.135C230.275+343.135+248.873+349.963+263.906+361.292L264.031+361.135C269.257+365.556+275.932+368.323+283.312+368.323C299.881+368.323+313.312+354.892+313.312+338.323C313.312+327.893+307.984+318.73+299.906+313.354L299.938+313.292C274.86+294.442+243.787+283.135+210+283.135Z" fill-opacity="0.457926" fill="#ff0000" opacity="1"/>
<path d="M329+433.135C329+416.015+342.879+402.135+360+402.135C377.121+402.135+391+416.015+391+433.135C391+450.256+377.121+464.135+360+464.135C342.879+464.135+329+450.256+329+433.135Z" fill-opacity="0.457926" fill="#ff0000" opacity="1"/>
</g>
<g id="图层 3_6" vectornator:layerName="图层 3" visibility="hidden">
<path d="M360+113.376C290.181+113.376+231.692+161.161+214.969+225.751L272.844+240.845L272.875+241.158C282.786+202.224+317.981+173.376+360+173.376C401.95+173.376+437.084+202.134+447.062+240.97L447.219+240.501L505.031+225.72C488.297+161.144+429.809+113.376+360+113.376Z" fill-opacity="0.457926" fill="#ff0000" opacity="1"/>
<path d="M446.175+233.214C446.175+216.646+459.606+203.214+476.175+203.214C492.743+203.214+506.175+216.646+506.175+233.214C506.175+249.783+492.743+263.214+476.175+263.214C459.606+263.214+446.175+249.783+446.175+233.214Z" fill-opacity="0.457926" fill="#ff0000" opacity="1"/>
<path d="M213.76+233.387C213.76+216.818+227.192+203.387+243.76+203.387C260.329+203.387+273.76+216.818+273.76+233.387C273.76+249.955+260.329+263.387+243.76+263.387C227.192+263.387+213.76+249.955+213.76+233.387Z" fill-opacity="0.457926" fill="#ff0000" opacity="1"/>
</g>
<g id="图层 1" vectornator:layerName="图层 1">
<path d="M0+0L720+0L720+720L0+720L0+0Z" opacity="1" fill="#ffffff"/>
</g>
<g id="图层 3_7" vectornator:layerName="图层 3">

</g>
<g id="图层 3_8" vectornator:layerName="图层 3">
<path d="M509.969+272.036C476.1+272.036+437.289+287.265+419.844+302.318C386.946+330.703+360.358+367.814+334.781+404.161L385.406+439.755L385.406+440.13C408.494+407.189+430.68+374.79+455.906+350.224C466.485+339.922+489.648+332.036+509.969+332.036C559.674+332.036+599.969+372.331+599.969+422.036C599.969+471.742+559.674+512.036+509.969+512.036C489.694+512.036+471.095+505.208+456.062+493.88L455.938+494.036C450.712+489.616+444.037+486.849+436.656+486.849C420.088+486.849+406.656+500.28+406.656+516.849C406.656+527.279+411.985+536.442+420.062+541.818L420.031+541.88C445.108+560.73+476.181+572.036+509.969+572.036C592.812+572.036+659.969+504.879+659.969+422.036C659.969+339.194+592.811+272.036+509.969+272.036Z" opacity="1" fill="url(#LinearGradient)"/>
<path d="M209.969+272.036C127.126+272.036+59.9689+339.194+59.9688+422.036C59.9687+504.879+127.126+572.036+209.969+572.036C243.725+572.036+276.433+561.716+299.844+541.943C333.101+513.852+359.809+476.653+385.406+440.13L385.406+439.755L385.375+439.755C388.887+434.73+390.969+428.632+390.969+422.036C390.969+404.915+377.09+391.036+359.969+391.036C348.889+391.036+339.231+396.888+333.75+405.63C310.93+438.072+288.846+469.815+263.875+493.974C250.704+506.716+230.218+512.036+209.969+512.036C160.263+512.036+119.969+471.742+119.969+422.036C119.969+372.331+160.263+332.036+209.969+332.036C230.244+332.036+248.842+338.864+263.875+350.193L264+350.036C269.226+354.457+275.901+357.224+283.281+357.224C299.85+357.224+313.281+343.792+313.281+327.224C313.281+316.794+307.953+307.631+299.875+302.255L299.906+302.193C274.829+283.342+243.756+272.036+209.969+272.036Z" opacity="1" fill="url(#LinearGradient_2)"/>
<path d="M359.969+102.276C291.741+102.276+234.437+147.953+216.25+210.307C214.644+213.982+213.719+218.009+213.719+222.276C213.719+238.844+227.15+252.276+243.719+252.276C257.709+252.276+269.368+242.669+272.688+229.713L272.812+229.745L272.844+230.057C282.755+191.124+317.95+162.276+359.969+162.276C401.918+162.276+437.053+191.033+447.031+229.87L447.156+229.495C450.46+242.473+462.15+252.12+476.156+252.12C492.725+252.12+506.156+238.688+506.156+222.12C506.156+217.878+505.244+213.84+503.656+210.182C485.429+147.891+428.152+102.276+359.969+102.276Z" opacity="1" fill="url(#LinearGradient_3)"/>
</g>
</svg>
